# xmcd
#
# Track frame offsets: 
#        150
#        14822
#        27567
#        45400
#        63827
#        82570
#        97822
#        113757
#        136380
#        158262
#        180187
#        191757
#        206857
#        228975
#        253432
#        269932
#        286002
#
# Disc length: 4021 seconds
#
# Revision: 0
# Processed by: cddbd v1.5.1PL2 Copyright (c) Steve Scherf et al.
# Submitted via: ExactAudioCopy v0.95b3
#
DISCID=e30fb311
DTITLE=Eddie Boyd - The Blues of Eddie Boyd - Live in Switzerland 1968
DYEAR=1995
DGENRE=Blues
TTITLE0=I'm Coming Home To You
TTITLE1=Early In The Morning
TTITLE2=I Ain't Doing Too Bad At All
TTITLE3=Mister Highway-Man
TTITLE4=Little Red Rooster
TTITLE5=I'm Sitting Here Waiting
TTITLE6=Third Degree
TTITLE7=The Hotel Blues
TTITLE8=I Got A Woman
TTITLE9=Cool Kind Treatment
TTITLE10=Five Long Years
TTITLE11=She's The One
TTITLE12=It's Miserable To Be Alone
TTITLE13=Save Her, Doctor
TTITLE14=Rattin' And Runnin' Around
TTITLE15=A Reel Good Feeling
TTITLE16=Her Picture In The Frame
EXTD=
EXTT0=
EXTT1=
EXTT2=
EXTT3=
EXTT4=
EXTT5=
EXTT6=
EXTT7=
EXTT8=
EXTT9=
EXTT10=
EXTT11=
EXTT12=
EXTT13=
EXTT14=
EXTT15=
EXTT16=
PLAYORDER=
